<svg width="32" height="32" viewBox="0 0 32 32" fill="none" xmlns="http://www.w3.org/2000/svg">
<path d="M28 3H4C2.89543 3 2 3.89543 2 5V6C2 7.10457 2.89543 8 4 8H28C29.1046 8 30 7.10457 30 6V5C30 3.89543 29.1046 3 28 3Z" fill="#FF7B4B"/>
<path d="M4.65529 10C4.58502 9.99963 4.51547 10.0141 4.45116 10.0424C4.38685 10.0707 4.32923 10.1122 4.28205 10.1643C4.23487 10.2164 4.1992 10.2778 4.17736 10.3446C4.15552 10.4114 4.148 10.482 4.15529 10.5519L5.79966 26.3369C5.79933 26.3415 5.79933 26.3461 5.79966 26.3506C5.88558 27.0807 6.23658 27.7539 6.78604 28.2423C7.33549 28.7307 8.04515 29.0003 8.78029 29H23.2234C23.9583 29 24.6677 28.7302 25.2169 28.2418C25.7661 27.7535 26.1169 27.0805 26.2028 26.3506V26.3375L27.8447 10.5519C27.852 10.482 27.8444 10.4114 27.8226 10.3446C27.8007 10.2778 27.7651 10.2164 27.7179 10.1643C27.6707 10.1122 27.6131 10.0707 27.5488 10.0424C27.4845 10.0141 27.4149 9.99963 27.3447 10H4.65529ZM20.209 21.2931C20.3041 21.3855 20.3799 21.4958 20.4319 21.6178C20.4839 21.7397 20.5112 21.8707 20.5122 22.0033C20.5131 22.1358 20.4877 22.2672 20.4374 22.3899C20.3871 22.5125 20.3129 22.6239 20.2191 22.7176C20.1254 22.8113 20.0139 22.8854 19.8913 22.9357C19.7686 22.9859 19.6372 23.0113 19.5047 23.0103C19.3721 23.0093 19.2411 22.982 19.1192 22.9299C18.9973 22.8778 18.887 22.802 18.7947 22.7069L16.0022 19.9144L13.209 22.7069C13.0206 22.8899 12.7678 22.9915 12.5051 22.9896C12.2424 22.9878 11.991 22.8826 11.8052 22.6969C11.6194 22.5112 11.5142 22.2599 11.5122 21.9972C11.5102 21.7345 11.6117 21.4816 11.7947 21.2931L14.5878 18.5L11.7947 15.7069C11.6117 15.5184 11.5102 15.2655 11.5122 15.0028C11.5142 14.7401 11.6194 14.4888 11.8052 14.3031C11.991 14.1174 12.2424 14.0122 12.5051 14.0104C12.7678 14.0085 13.0206 14.1101 13.209 14.2931L16.0022 17.0856L18.7947 14.2931C18.9831 14.1101 19.2359 14.0085 19.4986 14.0104C19.7613 14.0122 20.0127 14.1174 20.1985 14.3031C20.3843 14.4888 20.4895 14.7401 20.4915 15.0028C20.4935 15.2655 20.392 15.5184 20.209 15.7069L17.4159 18.5L20.209 21.2931Z" fill="#FF7B4B"/>
</svg>
